PathFileType	4	(X/Y/Z)	RBDS019\RBDS019runT25.trc
DataRate	CameraRate	NumFrames	NumMarkers	Units	OrigDataRate	OrigDataStartFrame	OrigNumFrames
150.000000	150.000000	4	33	mm	150.000000	3375	4500
Frame#	Time	L.ASIS			L.Heel.Bottom			L.Heel.Lateral			L.Heel.Top			L.Iliac.Crest			L.MT1			L.MT5			L.PSIS			L.Shank.Bottom.Lateral			L.Shank.Bottom.Medial			L.Shank.Top.Lateral			L.Shank.Top.Medial			L.Thigh.Bottom.Lateral			L.Thigh.Bottom.Medial			L.Thigh.Top.Lateral			L.Thigh.Top.Medial			R.ASIS			R.ASY			R.Heel.Bottom			R.Heel.Lateral			R.Heel.Top			R.Iliac.Crest			R.MT1			R.MT5			R.PSIS			R.Shank.Bottom.Lateral			R.Shank.Bottom.Medial			R.Shank.Top.Lateral			R.Shank.Top.Medial			R.Thigh.Bottom.Lateral			R.Thigh.Bottom.Medial			R.Thigh.Top.Lateral			R.Thigh.Top.Medial			
		X1	Y1	Z1	X2	Y2	Z2	X3	Y3	Z3	X4	Y4	Z4	X5	Y5	Z5	X6	Y6	Z6	X7	Y7	Z7	X8	Y8	Z8	X9	Y9	Z9	X10	Y10	Z10	X11	Y11	Z11	X12	Y12	Z12	X13	Y13	Z13	X14	Y14	Z14	X15	Y15	Z15	X16	Y16	Z16	X17	Y17	Z17	X18	Y18	Z18	X19	Y19	Z19	X20	Y20	Z20	X21	Y21	Z21	X22	Y22	Z22	X23	Y23	Z23	X24	Y24	Z24	X25	Y25	Z25	X26	Y26	Z26	X27	Y27	Z27	X28	Y28	Z28	X29	Y29	Z29	X30	Y30	Z30	X31	Y31	Z31	X32	Y32	Z32	X33	Y33	Z33	

3376	22.5	2308.958684920334	883.1284831157687	950.5434258668716	1850.913150857055	496.769396776386	1039.304661044454	1861.932947344035	473.5697723455687	990.8656032215748	1895.864248792389	481.0363986165384	1035.808585256147	2259.939122193353	938.9942809404185	901.5554607651958	1835.30510109876	289.6472061561805	1034.947687267857	1826.802241834304	340.569954712996	940.9312704393884	2134.522554497476	917.0269876824937	979.9456559717571	1975.994465458876	432.2057976057692	961.9839572477456	1978.190010690527	461.1901499821117	1003.971013832256	2054.433056758688	443.0818894118058	946.4429404418513	2060.82726565821	470.4780331713604	991.1447429743923	2265.39262942505	510.0749855047819	901.8436292334651	2204.818279658199	504.8692245993732	942.7078857965381	2245.166091774954	616.3961430583155	885.8670320079181	2187.74052180618	611.6687757541108	925.912111383744	2268.964757916528	916.3684955356782	1183.767604959818	2258.565303773283	75.78534701399647	1085.853647263307	2080.874447348639	34.64532052237587	1084.230889644844	2109.925987079313	48.5169940551902	1123.866880537342	2093.978347190916	78.41935777159706	1083.207783018124	2203.259286198489	961.3637036331357	1195.421157677758	2279.258339559363	48.31647609531046	1044.20290697166	2252.091338706167	33.15022267941486	1149.508689728452	2119.814574485703	933.5007689284789	1076.42800647442	2188.716955080782	144.6759292718561	1146.923796704155	2149.337146078342	167.6363360663468	1115.029625288661	2208.650216167803	219.3071564496569	1173.647227752047	2171.272640923674	240.8671309939181	1139.930879561183	2278.513554307924	533.3530101090736	1219.694660299582	2228.4307820352	519.5034683595849	1170.189721454446	2237.090659342213	635.1881287234884	1233.186506821414	2186.917371336326	619.8012731949041	1189.412348104563	
3377	22.50666666666667	2307.066327910694	883.6304435513102	949.2060686652276	1860.157988567899	492.5259782784485	1034.710197145385	1872.469553109758	468.3562859013852	987.125370521742	1905.500928420797	477.6734525818619	1032.514687606697	2255.971758105566	939.8767710281186	900.634895476128	1849.670699040128	284.9773945941223	1035.373102279128	1841.315891369919	333.3331607900296	939.9441566387459	2132.953057001307	917.6054693042977	980.8798293031193	1987.98309117258	429.375277202571	960.4780102695042	1989.618070963113	458.5607956992965	1002.37763419681	2066.634172854192	440.9671182173498	945.7644694086434	2072.362895362074	468.6281941003427	990.4044030238155	2274.346946132536	511.0156444604083	901.9575292749554	2213.29588274887	503.8672903575182	941.7239322301749	2251.077578416594	616.7090494007894	885.7656294718297	2193.160272816157	610.1519304398099	924.82507215566	2268.788162006327	916.0709934794071	1182.746767417601	2242.080183217523	75.7702232184851	1085.99307991305	2064.235966622799	35.35124809660301	1084.357089394119	2093.356618955886	48.99748194197822	1124.036318924184	2077.549244577114	79.060390403385	1083.425859604657	2202.881776098371	962.2811456160912	1195.204547553053	2262.443842084256	48.26955411657642	1044.410810857832	2235.252219156256	33.11154443237215	1149.540391495614	2118.953854369784	934.4103586108351	1077.198652965756	2173.474719063494	144.5817938721069	1146.835716333902	2134.281935725665	168.134420521554	1115.229514944519	2194.565868550359	218.8774502314096	1173.556820771021	2157.424808012814	240.9760099998167	1140.100312767054	2269.979677727043	532.2101917494621	1219.409344392128	2219.208016910942	519.4594068906075	1170.353934785026	2231.131408295326	635.0990477762698	1232.785221490629	2180.397769455647	620.8973847978168	1189.294442743708	
3378	22.51333333333334	2305.290535462693	884.8269334275238	947.9338079580156	1868.923993801102	486.9118571033798	1030.299676946346	1882.574831907479	461.9377550068511	983.4777944511308	1914.701791986621	473.2416414363457	1029.127827555555	2252.738127035643	941.5743766981307	900.0410243583665	1864.584785673987	279.1369242694272	1035.863840392968	1856.030163549267	324.9254486024279	939.1254371782929	2131.466095430627	918.911863596402	982.1180169979796	1999.613472940463	425.9501085613372	958.9200590045841	2000.514908812352	455.3916136947282	1000.683536587968	2078.403251143889	438.7424758867738	945.0134654285808	2083.286926766647	466.763609977804	989.539941757709	2283.174691092943	513.0108662141383	902.0384394505007	2221.77202923884	503.8715243721343	940.7762017743079	2256.878958719642	617.9998894638607	885.7096964949687	2198.583290571277	609.5668637868995	923.8323629490741	2268.782853694432	915.9730880219579	1181.744548434964	2225.583025876301	75.72209775185017	1086.012303411156	2047.496064774895	36.29939458386983	1084.434641081568	2076.710850916551	49.67027075853215	1124.161552841597	2061.09196574199	79.93232184673374	1083.597869428881	2203.115778920399	963.6970645979452	1195.175008573216	2245.553630569464	48.07778250671128	1044.485337081303	2218.317232253105	33.05959405718858	1149.498067349114	2118.203575434014	935.8674894939985	1078.431835495808	2158.026646226733	144.7202951380955	1146.575276735302	2118.986567817626	168.7653916291068	1115.219013303081	2180.117562152045	218.7213013879278	1173.205929596352	2143.18939965651	241.2666661854622	1139.973999179656	2261.194844429585	531.5424247047036	1218.815317392918	2209.570920671732	519.9366567984401	1170.421232244716	2225.067968387203	635.4647564686911	1232.208256241619	2173.625580519045	622.4991096218057	1189.194137787576	
3379	22.52	2303.670861637675	886.6547824398338	946.7882131917107	1877.235203732098	479.8708517620762	1026.189632599996	1892.287349172512	454.3175417029778	980.0148833550787	1923.480598485624	467.7034785457353	1025.740622423159	2250.336131350106	943.9355352162096	899.7551329820894	1880.093552650349	272.1782790995283	1036.362663868461	1871.019218714285	315.4634639120614	938.4477601603384	2130.086293534771	920.8806739794653	983.5242373828685	2010.874328891835	421.9082687423081	957.3495883072405	2010.858296138421	451.6671095591832	998.9084955884439	2089.679898404611	436.3854371546512	944.1813046774832	2093.537906432151	464.8663382269533	988.5250801229638	2291.789290575222	516.0333286716918	902.0783099272593	2230.177824225463	504.8791104888501	939.8962209119726	2262.494558104316	620.2426058103246	885.6958791075085	2203.95302863359	609.9082857858315	922.9603872394707	2268.896839250357	916.1111988064852	1180.844163148913	2209.102815439102	75.69116522021646	1085.94809321346	2030.692568664054	37.57533122225268	1084.486345065045	2060.025710109197	50.60660400767109	1124.264045877902	2044.645512254664	81.11478401236106	1083.759913190686	2203.864764213304	965.4595850820629	1195.324658355554	2228.597911187511	47.81000481475435	1044.447285924336	2201.299457377412	33.03027454728242	1149.396334227413	2117.566658448403	937.8386395436802	1079.980326054528	2142.431945659005	145.2094269264451	1146.194452654386	2103.519843835808	169.6606774471308	1115.038579623341	2165.404029854866	218.9639471901415	1172.647781906656	2128.663910096826	241.8762699226463	1139.593449442742	2252.275119152584	531.4043998266217	1217.960298446618	2199.694057054553	520.9940567533046	1170.380989814086	2218.964191484617	636.308689544278	1231.487778471609	2166.710088372171	624.6218038789876	1189.102163157701	
